<?xml version="1.0" standalone="no"?>
<!DOCTYPE svg PUBLIC "-//W3C//DTD SVG 20010904//EN"
 "http://www.w3.org/TR/2001/REC-SVG-20010904/DTD/svg10.dtd">
<svg version="1.0" xmlns="http://www.w3.org/2000/svg"
 width="256.000000pt" height="256.000000pt" viewBox="0 0 256.000000 256.000000"
 preserveAspectRatio="xMidYMid meet">

<g transform="translate(0.000000,256.000000) scale(0.100000,-0.100000)"
fill="#000000" stroke="none">
<path d="M466 2535 c-232 -39 -403 -214 -441 -450 -22 -132 -22 -1478 0 -1610
39 -241 209 -411 450 -450 132 -22 1478 -22 1610 0 241 39 411 209 450 450 22
132 22 1478 0 1610 -39 241 -209 411 -450 450 -125 21 -1498 20 -1619 0z m972
-371 c286 -59 541 -285 639 -566 176 -506 -100 -1044 -607 -1184 -100 -28
-310 -26 -414 4 -231 66 -431 229 -540 442 -182 352 -124 772 147 1057 201
212 494 305 775 247z"/>
</g>
</svg>
